name ./resultDataOpenSim/trcMotMarkerGrf/sub06/grf-04-01.mot
datacolumns 19
datarows 22
range 0.51200000 0.59600000
endheader

                time	     ground_force_vx	     ground_force_vy	     ground_force_vz	     ground_force_px	     ground_force_py	     ground_force_pz	   l_ground_force_vx	   l_ground_force_vy	   l_ground_force_vz	   l_ground_force_px	   l_ground_force_py	   l_ground_force_pz	     ground_torque_x	     ground_torque_y	     ground_torque_z	   l_ground_torque_x	   l_ground_torque_y	   l_ground_torque_z	
          0.51200000	        132.08831471	        667.91742263	        -29.23214265	         -0.88521983	          0.00000000	          0.09659307	          0.00000000	          0.00000000	          0.00000000	          0.00000000	          0.00000000	          0.00000000	          0.00000000	          1.04173275	          0.00000000	          0.00000000	          0.00000000	          0.00000000	
          0.51600000	        140.15599028	        684.04580994	        -28.90768655	         -0.88450186	          0.00000000	          0.09636701	          0.00000000	          0.00000000	          0.00000000	          0.00000000	          0.00000000	          0.00000000	          0.00000000	          1.11719825	          0.00000000	          0.00000000	          0.00000000	          0.00000000	
          0.52000000	        148.49751914	        699.08920335	        -28.37436202	         -0.88388774	          0.00000000	          0.09613163	          0.00000000	          0.00000000	          0.00000000	          0.00000000	          0.00000000	          0.00000000	          0.00000000	          1.21230498	          0.00000000	          0.00000000	          0.00000000	          0.00000000	
          0.52400000	        157.03809203	        712.74368145	        -27.63155122	         -0.88335036	          0.00000000	          0.09589708	          0.00000000	          0.00000000	          0.00000000	          0.00000000	          0.00000000	          0.00000000	          0.00000000	          1.32035191	          0.00000000	          0.00000000	          0.00000000	          0.00000000	
          0.52800000	        165.70319829	        724.76943110	        -26.70244913	         -0.88287082	          0.00000000	          0.09567307	          0.00000000	          0.00000000	          0.00000000	          0.00000000	          0.00000000	          0.00000000	          0.00000000	          1.43379211	          0.00000000	          0.00000000	          0.00000000	          0.00000000	
          0.53200000	        174.40867340	        734.99356783	        -25.62885298	         -0.88242370	          0.00000000	          0.09547026	          0.00000000	          0.00000000	          0.00000000	          0.00000000	          0.00000000	          0.00000000	          0.00000000	          1.54515598	          0.00000000	          0.00000000	          0.00000000	          0.00000000	
          0.53600000	        183.05970442	        743.30577274	        -24.46213249	         -0.88197765	          0.00000000	          0.09529405	          0.00000000	          0.00000000	          0.00000000	          0.00000000	          0.00000000	          0.00000000	          0.00000000	          1.64774302	          0.00000000	          0.00000000	          0.00000000	          0.00000000	
          0.54000000	        191.55949685	        749.64659570	        -23.25435950	         -0.88150443	          0.00000000	          0.09514273	          0.00000000	          0.00000000	          0.00000000	          0.00000000	          0.00000000	          0.00000000	          0.00000000	          1.73592358	          0.00000000	          0.00000000	          0.00000000	          0.00000000	
          0.54400000	        199.82184250	        753.99765103	        -22.05133199	         -0.88098589	          0.00000000	          0.09501281	          0.00000000	          0.00000000	          0.00000000	          0.00000000	          0.00000000	          0.00000000	          0.00000000	          1.80510795	          0.00000000	          0.00000000	          0.00000000	          0.00000000	
          0.54800000	        207.77671810	        756.38133932	        -20.88736161	         -0.88041411	          0.00000000	          0.09489973	          0.00000000	          0.00000000	          0.00000000	          0.00000000	          0.00000000	          0.00000000	          0.00000000	          1.85160505	          0.00000000	          0.00000000	          0.00000000	          0.00000000	
          0.55200000	        215.36448073	        756.85961560	        -19.78061027	         -0.87979052	          0.00000000	          0.09479566	          0.00000000	          0.00000000	          0.00000000	          0.00000000	          0.00000000	          0.00000000	          0.00000000	          1.87258649	          0.00000000	          0.00000000	          0.00000000	          0.00000000	
          0.55600000	        222.52753995	        755.51714395	        -18.73023180	         -0.87912287	          0.00000000	          0.09469128	          0.00000000	          0.00000000	          0.00000000	          0.00000000	          0.00000000	          0.00000000	          0.00000000	          1.86621941	          0.00000000	          0.00000000	          0.00000000	          0.00000000	
          0.56000000	        229.20927681	        752.43376220	        -17.71734784	         -0.87842107	          0.00000000	          0.09457853	          0.00000000	          0.00000000	          0.00000000	          0.00000000	          0.00000000	          0.00000000	          0.00000000	          1.83186487	          0.00000000	          0.00000000	          0.00000000	          0.00000000	
          0.56400000	        235.35879272	        747.66442348	        -16.70931744	         -0.87769815	          0.00000000	          0.09445089	          0.00000000	          0.00000000	          0.00000000	          0.00000000	          0.00000000	          0.00000000	          0.00000000	          1.77016876	          0.00000000	          0.00000000	          0.00000000	          0.00000000	
          0.56800000	        240.93400382	        741.23619160	        -15.66655415	         -0.87697270	          0.00000000	          0.09430432	          0.00000000	          0.00000000	          0.00000000	          0.00000000	          0.00000000	          0.00000000	          0.00000000	          1.68291813	          0.00000000	          0.00000000	          0.00000000	          0.00000000	
          0.57200000	        245.89750889	        733.16177472	        -14.55145647	         -0.87626356	          0.00000000	          0.09413657	          0.00000000	          0.00000000	          0.00000000	          0.00000000	          0.00000000	          0.00000000	          0.00000000	          1.57264385	          0.00000000	          0.00000000	          0.00000000	          0.00000000	
          0.57600000	        250.20763851	        723.46344705	        -13.33626176	         -0.87558062	          0.00000000	          0.09394175	          0.00000000	          0.00000000	          0.00000000	          0.00000000	          0.00000000	          0.00000000	          0.00000000	          1.44205647	          0.00000000	          0.00000000	          0.00000000	          0.00000000	
          0.58000000	        253.81699696	        712.18989989	        -12.00723576	         -0.87492715	          0.00000000	          0.09371178	          0.00000000	          0.00000000	          0.00000000	          0.00000000	          0.00000000	          0.00000000	          0.00000000	          1.29347384	          0.00000000	          0.00000000	          0.00000000	          0.00000000	
          0.58400000	        256.68448768	        699.40161707	        -10.56689441	         -0.87431339	          0.00000000	          0.09344195	          0.00000000	          0.00000000	          0.00000000	          0.00000000	          0.00000000	          0.00000000	          0.00000000	          1.12842313	          0.00000000	          0.00000000	          0.00000000	          0.00000000	
          0.58800000	        258.78736389	        685.12936324	         -9.03457508	         -0.87375227	          0.00000000	          0.09313734	          0.00000000	          0.00000000	          0.00000000	          0.00000000	          0.00000000	          0.00000000	          0.00000000	          0.94755534	          0.00000000	          0.00000000	          0.00000000	          0.00000000	
          0.59200000	        260.11772636	        669.34227215	         -7.44337345	         -0.87325459	          0.00000000	          0.09280638	          0.00000000	          0.00000000	          0.00000000	          0.00000000	          0.00000000	          0.00000000	          0.00000000	          0.75089394	          0.00000000	          0.00000000	          0.00000000	          0.00000000	
          0.59600000	        260.66665923	        651.93895330	         -5.83358872	         -0.87283243	          0.00000000	          0.09245894	          0.00000000	          0.00000000	          0.00000000	          0.00000000	          0.00000000	          0.00000000	          0.00000000	          0.53831710	          0.00000000	          0.00000000	          0.00000000	          0.00000000	
